Patient4_TMGait_0pt2_01_left_13_GRF.mot
version=1
nRows=78
nColumns=19
inDegrees=no
endheader
time	F1x	F1y	F1z	M1x	M1y	M1z	F2x	F2y	F2z	M2x	M2y	M2z	EC1x	EC1y	EC1z	EC2x	EC2y	EC2z
29.5	-2.8526	3.6441	3.6735	-1.8345	-2.9905	5.9902	-10.1973	715.3211	-33.0777	240.5095	35.006	693.8706	-0.0592	0.0182	-0.0073	-0.0462	0.0165	0.9585
29.5239	-2.1749	2.5265	2.6578	-1.2578	-2.2372	4.1139	-9.9247	740.0328	-32.9289	249.0441	34.94	715.6512	-0.0592	0.0182	-0.0073	-0.0462	0.0165	0.9585
29.5477	-1.6026	1.5926	1.7844	-0.76837	-1.6003	2.5249	-10.5098	769.5271	-32.6232	259.2572	34.9768	741.6226	-0.0592	0.0182	-0.0073	-0.0462	0.0165	0.9585
29.5716	-1.1701	0.89406	1.1105	-0.39538	-1.1163	1.3169	-11.9219	801.5176	-32.1196	270.3308	35.0584	769.6821	-0.0592	0.0182	-0.0073	-0.0462	0.0165	0.9585
29.5954	-0.87412	0.41828	0.64173	-0.13695	-0.78406	0.48007	-13.8622	832.5526	-31.4024	281.0368	35.0616	796.6067	-0.0592	0.0182	-0.0073	-0.0462	0.0165	0.9585
29.6193	-0.69436	0.11625	0.35517	0.026768	-0.5845	-0.049236	-15.8959	858.5676	-30.4799	289.9407	34.8425	818.576	-0.0592	0.0182	-0.0073	-0.0462	0.0165	0.9585
29.6431	-0.60459	-0.074888	0.21554	0.12436	-0.49559	-0.35775	-17.5853	875.775	-29.3719	295.7185	34.2733	832.0291	-0.0592	0.0182	-0.0073	-0.0462	0.0165	0.9585
29.667	-0.58027	-0.223	0.18283	0.18882	-0.49187	-0.54234	-18.5524	881.6516	-28.1055	297.505	33.2602	834.5965	-0.0592	0.0182	-0.0073	-0.0462	0.0165	0.9585
29.6909	-0.60286	-0.3979	0.21775	0.25392	-0.54442	-0.69951	-18.5548	875.6413	-26.7235	295.1353	31.778	825.764	-0.0592	0.0182	-0.0073	-0.0462	0.0165	0.9585
29.7147	-0.6573	-0.66408	0.28571	0.35033	-0.62564	-0.91598	-17.5151	859.2768	-25.2896	289.1801	29.883	806.9805	-0.0592	0.0182	-0.0073	-0.0462	0.0165	0.9585
29.7386	-0.72907	-1.0756	0.3573	0.50217	-0.7113	-1.2595	-15.485	835.7136	-23.9017	280.765	27.6998	781.1931	-0.0592	0.0182	-0.0073	-0.0462	0.0165	0.9585
29.7624	-0.80422	-1.6702	0.40877	0.7235	-0.77826	-1.7752	-12.6097	808.9312	-22.6916	271.2809	25.4066	752.0947	-0.0592	0.0182	-0.0073	-0.0462	0.0165	0.9585
29.7863	-0.86945	-2.4515	0.41851	1.0134	-0.80104	-2.472	-9.0958	782.8477	-21.796	262.0783	23.1978	723.3119	-0.0592	0.0182	-0.0073	-0.0462	0.0165	0.9585
29.8101	-0.90292	-3.3656	0.36546	1.3483	-0.75187	-3.3029	-5.1624	760.5817	-21.3282	254.2245	21.244	697.7341	-0.0592	0.0182	-0.0073	-0.0462	0.0165	0.9585
29.834	-0.8707	-4.2731	0.22642	1.6725	-0.59639	-4.1398	-1.0118	744.0611	-21.3611	248.3771	19.6704	677.1627	-0.0592	0.0182	-0.0073	-0.0462	0.0165	0.9585
29.8579	-0.72854	-4.9162	-0.026927	1.8866	-0.28966	-4.7435	3.1984	733.9583	-21.921	244.7655	18.5436	662.2524	-0.0592	0.0182	-0.0073	-0.0462	0.0165	0.9585
29.8817	-0.42462	-4.883	-0.42628	1.8358	0.22008	-4.733	7.3539	729.8242	-22.9891	243.2368	17.8737	652.6493	-0.0592	0.0182	-0.0073	-0.0462	0.0165	0.9585
29.9056	0.10131	-3.5886	-0.99155	1.3001	0.97543	-3.5636	11.3453	730.3154	-24.5114	243.3319	17.6381	647.2283	-0.0592	0.0182	-0.0073	-0.0462	0.0165	0.9585
29.9294	0.90127	-0.27949	-1.7165	-0.0016044	1.9907	-0.53734	15.0447	733.4915	-26.3991	244.3867	17.7931	644.379	-0.0592	0.0182	-0.0073	-0.0462	0.0165	0.9585
29.9533	1.9986	5.9146	-2.5459	-2.3891	3.2235	5.1517	18.2911	737.158	-28.5101	245.6499	18.2657	642.3211	-0.0592	0.0182	-0.0073	-0.0462	0.0165	0.9585
29.9771	3.3607	15.8505	-3.3512	-6.1703	4.5412	14.3028	20.8925	739.1811	-30.6455	246.3909	18.9519	639.3727	-0.0592	0.0182	-0.0073	-0.0462	0.0165	0.9585
30.001	4.8564	30.1364	-3.9032	-11.5519	5.6759	27.4905	22.6612	737.6985	-32.5699	245.9734	19.7246	634.0986	-0.0592	0.0182	-0.0073	-0.0462	0.0165	0.9585
30.0249	6.2071	48.7618	-3.846	-18.4996	6.1801	44.717	23.4757	731.3083	-34.0453	243.9194	20.4408	625.4277	-0.0592	0.0182	-0.0073	-0.0462	0.0165	0.9585
30.0487	7.0443	70.7239	-2.7668	-26.6052	5.5127	65.0808	23.3157	719.275	-34.8814	239.9762	20.97	612.7992	-0.0592	0.0182	-0.0073	-0.0462	0.0165	0.9585
30.0726	7.2464	94.3517	-0.5244	-35.2268	3.4814	87.0564	22.2889	701.7428	-34.9888	234.1865	21.225	596.3258	-0.0592	0.0182	-0.0073	-0.0462	0.0165	0.9585
30.0964	6.9058	118.4	2.5138	-43.9194	0.4693	109.4773	20.642	679.7326	-34.3985	226.8863	21.1713	576.7769	-0.0592	0.0182	-0.0073	-0.0462	0.0165	0.9585
30.1203	6.1546	142.4335	5.7631	-52.5637	-2.9129	131.9179	18.6926	654.7268	-33.225	218.5669	20.8136	555.2472	-0.0592	0.0182	-0.0073	-0.0462	0.0165	0.9585
30.1441	5.1274	166.4518	8.7628	-61.2011	-6.1749	154.3581	16.719	628.1683	-31.6509	209.7058	20.2162	532.7821	-0.0592	0.0182	-0.0073	-0.0462	0.0165	0.9585
30.168	3.9462	190.5699	11.2955	-69.8972	-9.0594	176.8916	14.8744	601.1475	-29.9146	200.6612	19.5187	510.1479	-0.0592	0.0182	-0.0073	-0.0462	0.0165	0.9585
30.1919	2.7148	214.8346	13.3972	-78.666	-11.5594	199.5712	13.2086	574.3464	-28.2488	191.6594	18.8803	487.7947	-0.0592	0.0182	-0.0073	-0.0462	0.0165	0.9585
30.2157	1.499	239.0841	15.2156	-87.4259	-13.7932	222.2702	11.7235	548.1417	-26.8168	182.8333	18.4095	465.9426	-0.0592	0.0182	-0.0073	-0.0462	0.0165	0.9585
30.2396	0.30796	263.0106	16.8703	-96.0369	-15.8773	244.7447	10.4017	522.7378	-25.6934	174.2647	18.1469	444.6972	-0.0592	0.0182	-0.0073	-0.0462	0.0165	0.9585
30.2634	-0.89474	286.3677	18.4063	-104.3825	-17.8763	266.8279	9.224	498.2342	-24.87	166.0039	18.0726	424.098	-0.0592	0.0182	-0.0073	-0.0462	0.0165	0.9585
30.2873	-2.1496	309.0353	19.8265	-112.3956	-19.8152	288.4717	8.1698	474.6276	-24.2759	158.0663	18.1216	404.1099	-0.0592	0.0182	-0.0073	-0.0462	0.0165	0.9585
30.3111	-3.4758	330.9149	21.1328	-120.0219	-21.7059	309.6271	7.1995	451.7947	-23.8198	150.4219	18.2213	384.6159	-0.0592	0.0182	-0.0073	-0.0462	0.0165	0.9585
30.335	-4.8646	351.8472	22.3318	-127.1939	-23.5452	330.147	6.2624	429.5158	-23.4221	142.9998	18.3183	365.4452	-0.0592	0.0182	-0.0073	-0.0462	0.0165	0.9585
30.3589	-6.2538	371.6054	23.4254	-133.8359	-25.2986	349.7624	5.3308	407.5582	-23.0289	135.7188	18.3793	346.4343	-0.0592	0.0182	-0.0073	-0.0462	0.0165	0.9585
30.3827	-7.5346	389.983	24.4057	-139.8959	-26.904	368.1665	4.4222	385.764	-22.6197	128.5177	18.387	327.4861	-0.0592	0.0182	-0.0073	-0.0462	0.0165	0.9585
30.4066	-8.595	406.9051	25.266	-145.3778	-28.2974	385.1386	3.6019	364.0623	-22.1946	121.3637	18.3289	308.5722	-0.0592	0.0182	-0.0073	-0.0462	0.0165	0.9585
30.4304	-9.3379	422.501	26.0015	-150.3644	-29.4277	400.6407	2.9567	342.4815	-21.76	114.258	18.1909	289.7409	-0.0592	0.0182	-0.0073	-0.0462	0.0165	0.9585
30.4543	-9.6968	437.1084	26.6076	-155.0184	-30.2591	414.8391	2.5657	321.1735	-21.3249	107.2455	17.9609	271.1415	-0.0592	0.0182	-0.0073	-0.0462	0.0165	0.9585
30.4781	-9.6601	451.1604	27.0831	-159.5355	-30.7836	428.0349	2.4715	300.3894	-20.9035	100.4076	17.6417	253.0075	-0.0592	0.0182	-0.0073	-0.0462	0.0165	0.9585
30.502	-9.2823	465.0604	27.4405	-164.0943	-31.0333	440.5625	2.667	280.4153	-20.517	93.8387	17.2568	235.6022	-0.0592	0.0182	-0.0073	-0.0462	0.0165	0.9585
30.5259	-8.6603	479.1922	27.7123	-168.8543	-31.0746	452.7876	3.1034	261.4936	-20.1847	87.6188	16.8407	219.1512	-0.0592	0.0182	-0.0073	-0.0462	0.0165	0.9585
30.5497	-7.9165	494.0433	27.956	-173.9937	-31.0037	465.2032	3.7011	243.7383	-19.9037	81.7832	16.4173	203.7665	-0.0592	0.0182	-0.0073	-0.0462	0.0165	0.9585
30.5736	-7.1963	510.299	28.2683	-179.7348	-30.9549	478.5003	4.3596	227.0085	-19.6349	76.2797	15.9829	189.3424	-0.0592	0.0182	-0.0073	-0.0462	0.0165	0.9585
30.5974	-6.6575	528.8423	28.805	-186.3409	-31.1177	493.5516	4.9527	210.7528	-19.3015	70.9168	15.5086	175.4303	-0.0592	0.0182	-0.0073	-0.0462	0.0165	0.9585
30.6213	-6.4336	550.7154	29.7623	-194.1151	-31.7063	511.3487	5.3219	194.01	-18.7955	65.3649	14.9491	161.2383	-0.0592	0.0182	-0.0073	-0.0462	0.0165	0.9585
30.6451	-6.5893	576.976	31.3093	-203.3644	-32.8872	532.8527	5.2924	175.7252	-18.0018	59.2648	14.2583	145.8924	-0.0592	0.0182	-0.0073	-0.0462	0.0165	0.9585
30.669	-7.1007	608.3663	33.5378	-214.2941	-34.7271	558.6977	4.7329	155.2034	-16.8348	52.3833	13.4044	128.8051	-0.0592	0.0182	-0.0073	-0.0462	0.0165	0.9585
30.6929	-7.8783	644.8937	36.4317	-226.8621	-37.1733	588.8332	3.6326	132.4706	-15.2664	44.7336	12.368	109.9651	-0.0592	0.0182	-0.0073	-0.0462	0.0165	0.9585
30.7167	-8.7909	685.4888	39.8518	-240.6555	-40.0514	622.2544	2.1461	108.3267	-13.3372	36.5919	11.1357	89.9914	-0.0592	0.0182	-0.0073	-0.0462	0.0165	0.9585
30.7406	-9.6736	727.8889	43.5548	-254.8467	-43.0903	656.9204	0.55646	84.0986	-11.1424	28.4125	9.7013	69.9449	-0.0592	0.0182	-0.0073	-0.0462	0.0165	0.9585
30.7644	-10.3366	768.8146	47.2456	-268.2539	-45.9718	689.9227	-0.82284	61.2792	-8.8087	20.7049	8.0778	51.0427	-0.0592	0.0182	-0.0073	-0.0462	0.0165	0.9585
30.7883	-10.6013	804.494	50.6429	-279.5355	-48.3985	717.9693	-1.7359	41.2001	-6.4839	13.9219	6.3126	34.3823	-0.0592	0.0182	-0.0073	-0.0462	0.0165	0.9585
30.8121	-10.3485	831.4893	53.5102	-287.5042	-50.1397	738.1235	-2.0674	24.8018	-4.3321	8.382	4.5104	20.7465	-0.0592	0.0182	-0.0073	-0.0462	0.0165	0.9585
30.836	-9.5371	847.5699	55.6313	-291.4482	-51.0182	748.5502	-1.9168	12.5062	-2.5198	4.2284	2.8494	10.4974	-0.0592	0.0182	-0.0073	-0.0462	0.0165	0.9585
30.8599	-8.1825	852.2474	56.8224	-291.3082	-50.9064	748.9309	-1.5175	4.1424	-1.1455	1.4038	1.4935	3.5084	-0.0592	0.0182	-0.0073	-0.0462	0.0165	0.9585
30.8837	-6.3402	846.8016	57.0172	-287.6543	-49.7852	740.4516	-1.0412	-0.92221	-0.20091	-0.30558	0.49276	-0.73859	-0.0592	0.0182	-0.0073	-0.0462	0.0165	0.9585
30.9076	-4.1066	833.875	56.3166	-281.5146	-47.782	725.4307	-0.58777	-3.4988	0.3806	-1.1742	-0.17697	-2.9159	-0.0592	0.0182	-0.0073	-0.0462	0.0165	0.9585
30.9314	-1.6001	816.8232	54.9351	-274.14	-45.1222	706.755	-0.20722	-4.3865	0.68887	-1.4727	-0.57677	-3.6845	-0.0592	0.0182	-0.0073	-0.0462	0.0165	0.9585
30.9553	1.0737	798.9505	53.1162	-266.7392	-42.0502	687.2254	0.082682	-4.2713	0.81235	-1.4343	-0.77868	-3.6136	-0.0592	0.0182	-0.0073	-0.0462	0.0165	0.9585
30.9791	3.8565	782.8855	51.0772	-260.2645	-38.7727	669.0357	0.28559	-3.6888	0.82483	-1.242	-0.85143	-3.1528	-0.0592	0.0182	-0.0073	-0.0462	0.0165	0.9585
31.003	6.7332	770.2373	48.9887	-255.2931	-35.4406	653.5212	0.41566	-3.0275	0.7853	-1.0293	-0.85463	-2.6328	-0.0592	0.0182	-0.0073	-0.0462	0.0165	0.9585
31.0269	9.6964	761.5509	46.9875	-252.0048	-32.1725	641.1495	0.49144	-2.5464	0.73707	-0.88563	-0.835	-2.2772	-0.0592	0.0182	-0.0073	-0.0462	0.0165	0.9585
31.0507	12.7228	756.4997	45.1982	-250.2469	-29.0839	631.6996	0.53082	-2.4008	0.70573	-0.8646	-0.82382	-2.2208	-0.0592	0.0182	-0.0073	-0.0462	0.0165	0.9585
31.0746	15.7625	754.2735	43.7393	-249.6707	-26.2948	624.5927	0.54798	-2.6537	0.69839	-0.98702	-0.83335	-2.5143	-0.0592	0.0182	-0.0073	-0.0462	0.0165	0.9585
31.0984	18.7424	754.0072	42.7112	-249.8901	-23.9198	619.2466	0.55446	-3.2792	0.70661	-1.2413	-0.85857	-3.1284	-0.0592	0.0182	-0.0073	-0.0462	0.0165	0.9585
31.1223	21.5789	755.0149	42.1869	-250.5763	-22.058	615.2479	0.55663	-4.1536	0.71259	-1.5814	-0.8804	-3.946	-0.0592	0.0182	-0.0073	-0.0462	0.0165	0.9585
31.1461	24.1924	756.7936	42.2147	-251.4748	-20.7861	612.3055	0.55504	-5.0309	0.6912	-1.9186	-0.86751	-4.7413	-0.0592	0.0182	-0.0073	-0.0462	0.0165	0.9585
31.17	26.5383	758.9476	42.7935	-252.3966	-20.1291	610.1607	0.54381	-5.5141	0.60441	-2.1063	-0.77853	-5.1574	-0.0592	0.0182	-0.0073	-0.0462	0.0165	0.9585
31.1939	28.6302	761.0545	43.8567	-253.1787	-20.0369	608.4749	0.50716	-5.0282	0.39882	-1.9285	-0.55899	-4.671	-0.0592	0.0182	-0.0073	-0.0462	0.0165	0.9585
31.2177	30.5035	762.5199	45.2819	-253.6272	-20.402	606.7249	0.42023	-2.8078	0.014234	-1.0974	-0.14438	-2.5804	-0.0592	0.0182	-0.0073	-0.0462	0.0165	0.9585
31.2416	32.1541	762.5537	46.9079	-253.4993	-21.0912	604.2189	0.25246	2.081	-0.61127	0.73913	0.53623	1.971	-0.0592	0.0182	-0.0073	-0.0462	0.0165	0.9585
31.2654	33.517	760.2379	48.5525	-252.5142	-21.968	600.1802	-0.026983	10.6546	-1.529	3.9661	1.5441	9.9141	-0.0592	0.0182	-0.0073	-0.0462	0.0165	0.9585
31.2893	34.4705	754.5634	50.0369	-250.3579	-22.9146	593.7968	-0.44649	23.8257	-2.7546	8.9312	2.903	22.0843	-0.0592	0.0182	-0.0073	-0.0462	0.0165	0.9585
31.3131	34.8795	744.5095	51.2001	-246.7076	-23.8324	584.2805	-1.0415	42.0966	-4.2374	15.8299	4.5726	38.9275	-0.0592	0.0182	-0.0073	-0.0462	0.0165	0.9585
31.337	34.6595	729.2553	51.9139	-241.3038	-24.6327	571.0014	-1.9036	65.2139	-5.8778	24.5752	6.4855	60.183	-0.0592	0.0182	-0.0073	-0.0462	0.0165	0.9585
